<?xml version="1.0" encoding="UTF-8"?>
<mxfile host="app.diagrams.net" modified="2025-05-30T00:00:00.000Z" agent="PythonUserVisible" etag="00002" version="15.8.7" type="device">
  <diagram id="VisualGraphUseCase" name="VisualGraphUseCase">
    <mxGraphModel dx="800" dy="600" grid="1" gridSize="10" guides="1" tooltips="1" connect="1" arrows="1" fold="1" page="1" pageScale="1" pageWidth="850" pageHeight="1100">
      <root>
        <mxCell id="0"/>
        <mxCell id="1" parent="0"/>

        <!-- Actor: User -->
        <mxCell id="A1" value="User" style="shape=actor;verticalLabelPosition=bottom;verticalAlign=top;html=1;" vertex="1" parent="1">
          <mxGeometry x="20" y="200" width="60" height="80" as="geometry"/>
        </mxCell>

        <!-- Base Use Case -->
        <mxCell id="UC1" value="Visualize Dependency Graph" style="ellipse;whiteSpace=wrap;html=1;" vertex="1" parent="1">
          <mxGeometry x="200" y="200" width="180" height="80" as="geometry"/>
        </mxCell>

        <!-- Included Use Cases -->
        <mxCell id="UC1_1" value="Select Node" style="ellipse;whiteSpace=wrap;html=1;" vertex="1" parent="1">
          <mxGeometry x="420" y="100" width="120" height="60" as="geometry"/>
        </mxCell>
        <mxCell id="UC1_2" value="Remove Node" style="ellipse;whiteSpace=wrap;html=1;" vertex="1" parent="1">
          <mxGeometry x="420" y="200" width="120" height="60" as="geometry"/>
        </mxCell>
        <mxCell id="UC1_3" value="Edit Node Appearance" style="ellipse;whiteSpace=wrap;html=1;" vertex="1" parent="1">
          <mxGeometry x="420" y="300" width="140" height="60" as="geometry"/>
        </mxCell>
        <mxCell id="UC1_4" value="Pan & Zoom Graph" style="ellipse;whiteSpace=wrap;html=1;" vertex="1" parent="1">
          <mxGeometry x="420" y="400" width="140" height="60" as="geometry"/>
        </mxCell>

        <!-- Extended Use Cases -->
        <mxCell id="UC2" value="Toggle Dependency Direction" style="ellipse;whiteSpace=wrap;html=1;" vertex="1" parent="1">
          <mxGeometry x="200" y="100" width="180" height="60" as="geometry"/>
        </mxCell>
        <mxCell id="UC3" value="View Node Details" style="ellipse;whiteSpace=wrap;html=1;" vertex="1" parent="1">
          <mxGeometry x="200" y="300" width="140" height="60" as="geometry"/>
        </mxCell>
        <mxCell id="UC4" value="Configure Stop Conditions" style="ellipse;whiteSpace=wrap;html=1;" vertex="1" parent="1">
          <mxGeometry x="200" y="400" width="160" height="60" as="geometry"/>
        </mxCell>

        <!-- Associations: User to base use case -->
        <mxCell id="E1" style="edgeStyle=orthogonalEdgeStyle;rounded=0;html=1;" edge="1" source="A1" target="UC1" parent="1">
          <mxGeometry relative="1" as="geometry"/>
        </mxCell>

        <!-- Include relationships (dashed) -->
        <mxCell id="I1" style="edgeStyle=orthogonalEdgeStyle;rounded=0;dashed=1;endArrow=none;html=1;" edge="1" source="UC1" target="UC1_1" parent="1">
          <mxGeometry relative="1" as="geometry"/>
          <mxCell id="I1_label" value="&lt;&lt;include&gt;&gt;" style="text;html=1;fontStyle=1;" vertex="1" parent="I1">
            <mxGeometry x="0.5" y="-0.2" as="geometry"/>
          </mxCell>
        </mxCell>
        <mxCell id="I2" style="edgeStyle=orthogonalEdgeStyle;rounded=0;dashed=1;endArrow=none;html=1;" edge="1" source="UC1" target="UC1_2" parent="1">
          <mxGeometry relative="1" as="geometry"/>
          <mxCell id="I2_label" value="&lt;&lt;include&gt;&gt;" style="text;html=1;fontStyle=1;" vertex="1" parent="I2">
            <mxGeometry x="0.5" y="-0.2" as="geometry"/>
          </mxCell>
        </mxCell>
        <mxCell id="I3" style="edgeStyle=orthogonalEdgeStyle;rounded=0;dashed=1;endArrow=none;html=1;" edge="1" source="UC1" target="UC1_3" parent="1">
          <mxGeometry relative="1" as="geometry"/>
          <mxCell id="I3_label" value="&lt;&lt;include&gt;&gt;" style="text;html=1;fontStyle=1;" vertex="1" parent="I3">
            <mxGeometry x="0.5" y="-0.2" as="geometry"/>
          </mxCell>
        </mxCell>
        <mxCell id="I4" style="edgeStyle=orthogonalEdgeStyle;rounded=0;dashed=1;endArrow=none;html=1;" edge="1" source="UC1" target="UC1_4" parent="1">
          <mxGeometry relative="1" as="geometry"/>
          <mxCell id="I4_label" value="&lt;&lt;include&gt;&gt;" style="text;html=1;fontStyle=1;" vertex="1" parent="I4">
            <mxGeometry x="0.5" y="-0.2" as="geometry"/>
          </mxCell>
        </mxCell>

        <!-- Extend relationships (dashed) -->
        <mxCell id="X1" style="edgeStyle=orthogonalEdgeStyle;rounded=0;dashed=1;endArrow=none;html=1;" edge="1" source="UC2" target="UC1" parent="1">
          <mxGeometry relative="1" as="geometry"/>
          <mxCell id="X1_label" value="&lt;&lt;extend&gt;&gt;" style="text;html=1;fontStyle=1;" vertex="1" parent="X1">
            <mxGeometry x="0.5" y="-0.2" as="geometry"/>
          </mxCell>
        </mxCell>
        <mxCell id="X2" style="edgeStyle=orthogonalEdgeStyle;rounded=0;dashed=1;endArrow=none;html=1;" edge="1" source="UC3" target="UC1" parent="1">
          <mxGeometry relative="1" as="geometry"/>
          <mxCell id="X2_label" value="&lt;&lt;extend&gt;&gt;" style="text;html=1;fontStyle=1;" vertex="1" parent="X2">
            <mxGeometry x="0.5" y="-0.2" as="geometry"/>
          </mxCell>
        </mxCell>
        <mxCell id="X3" style="edgeStyle=orthogonalEdgeStyle;rounded=0;dashed=1;endArrow=none;html=1;" edge="1" source="UC4" target="UC1" parent="1">
          <mxGeometry relative="1" as="geometry"/>
          <mxCell id="X3_label" value="&lt;&lt;extend&gt;&gt;" style="text;html=1;fontStyle=1;" vertex="1" parent="X3">
            <mxGeometry x="0.5" y="-0.2" as="geometry"/>
          </mxCell>
        </mxCell>

      </root>
    </mxGraphModel>
  </diagram>
</mxfile>
